HIERARCHY
ROOT Hips
{
	OFFSET 0.000000 0.000000 0.000000
	CHANNELS 6 Xposition Yposition Zposition Zrotation Yrotation Xrotation 
	JOINT LHipJoint
	{
		OFFSET 0.000000 0.000000 0.000000
		CHANNELS 3 Zrotation Yrotation Xrotation
		JOINT LeftUpLeg
		{
			OFFSET 1.363060 -1.794630 0.839290
			CHANNELS 3 Zrotation Yrotation Xrotation
			JOINT LeftLeg
			{
				OFFSET 2.448110 -6.726130 0.000000
				CHANNELS 3 Zrotation Yrotation Xrotation
				JOINT LeftFoot
				{
					OFFSET 2.562200 -7.039590 0.000000
					CHANNELS 3 Zrotation Yrotation Xrotation
					JOINT LeftToeBase
					{
						OFFSET 0.157640 -0.433110 2.322550
						CHANNELS 3 Zrotation Yrotation Xrotation
						End Site
						{
							OFFSET 0.000000 0.000000 0.000000
						}
					}
				}
			}
		}
	}
	JOINT RHipJoint
	{
		OFFSET 0.000000 0.000000 0.000000
		CHANNELS 3 Zrotation Yrotation Xrotation
		JOINT RightUpLeg
		{
			OFFSET -1.305520 -1.794630 0.839290
			CHANNELS 3 Zrotation Yrotation Xrotation
			JOINT RightLeg
			{
				OFFSET -2.542530 -6.985550 0.000000
				CHANNELS 3 Zrotation Yrotation Xrotation
				JOINT RightFoot
				{
					OFFSET -2.568260 -7.056230 0.000000
					CHANNELS 3 Zrotation Yrotation Xrotation
					JOINT RightToeBase
					{
						OFFSET -0.164730 -0.452590 2.363150
						CHANNELS 3 Zrotation Yrotation Xrotation
						End Site
						{
							OFFSET 0.000000 0.000000 0.000000
						}
					}
				}
			}
		}
	}
	JOINT LowerBack
	{
		OFFSET 0.000000 0.000000 0.000000
		CHANNELS 3 Zrotation Yrotation Xrotation
		JOINT Spine
		{
			OFFSET 0.028270 2.035590 -0.193380
			CHANNELS 3 Zrotation Yrotation Xrotation
			JOINT Spine1
			{
				OFFSET 0.056720 2.048850 -0.042750
				CHANNELS 3 Zrotation Yrotation Xrotation
				JOINT Neck
				{
					OFFSET 0.000000 0.000000 0.000000
					CHANNELS 3 Zrotation Yrotation Xrotation
					JOINT Neck1
					{
						OFFSET -0.054170 1.746240 0.172020
						CHANNELS 3 Zrotation Yrotation Xrotation
						JOINT Head
						{
							OFFSET 0.104070 1.761360 -0.123970
							CHANNELS 3 Zrotation Yrotation Xrotation
							End Site
							{
								OFFSET 0.000000 0.000000 0.000000
							}
						}
					}
				}
				JOINT LeftShoulder
				{
					OFFSET 0.000000 0.000000 0.000000
					CHANNELS 3 Zrotation Yrotation Xrotation
					JOINT LeftArm
					{
						OFFSET 3.362410 1.200890 -0.311210
						CHANNELS 3 Zrotation Yrotation Xrotation
						JOINT LeftForeArm
						{
							OFFSET 4.983000 -0.000000 -0.000000
							CHANNELS 3 Zrotation Yrotation Xrotation
							JOINT LeftHand
							{
								OFFSET 3.483560 -0.000000 -0.000000
								CHANNELS 3 Zrotation Yrotation Xrotation
								JOINT LeftFingerBase
								{
									OFFSET 0.000000 0.000000 0.000000
									CHANNELS 3 Zrotation Yrotation Xrotation
									JOINT LeftHandIndex1
									{
										OFFSET 0.715260 -0.000000 -0.000000
										CHANNELS 3 Zrotation Yrotation Xrotation
										End Site
										{
											OFFSET 0.000000 0.000000 0.000000
										}
									}
								}
								JOINT LThumb
								{
									OFFSET 0.000000 0.000000 0.000000
									CHANNELS 3 Zrotation Yrotation Xrotation
									End Site
									{
										OFFSET 0.000000 0.000000 0.000000
									}
								}
							}
						}
					}
				}
				JOINT RightShoulder
				{
					OFFSET 0.000000 0.000000 0.000000
					CHANNELS 3 Zrotation Yrotation Xrotation
					JOINT RightArm
					{
						OFFSET -3.136600 1.374050 -0.404650
						CHANNELS 3 Zrotation Yrotation Xrotation
						JOINT RightForeArm
						{
							OFFSET -5.241900 -0.000000 -0.000000
							CHANNELS 3 Zrotation Yrotation Xrotation
							JOINT RightHand
							{
								OFFSET -3.444170 -0.000000 -0.000000
								CHANNELS 3 Zrotation Yrotation Xrotation
								JOINT RightFingerBase
								{
									OFFSET 0.000000 0.000000 0.000000
									CHANNELS 3 Zrotation Yrotation Xrotation
									JOINT RightHandIndex1
									{
										OFFSET -0.622530 -0.000000 -0.000000
										CHANNELS 3 Zrotation Yrotation Xrotation
										End Site
										{
											OFFSET 0.000000 0.000000 0.000000
										}
									}
								}
								JOINT RThumb
								{
									OFFSET 0.000000 0.000000 0.000000
									CHANNELS 3 Zrotation Yrotation Xrotation
									End Site
									{
										OFFSET 0.000000 0.000000 0.000000
									}
								}
							}
						}
					}
				}
			}
		}
	}
}
MOTION
Frames: 12
Frame Time: 0.008333
1.551906 21.942824 0.817764 22.772415 -66.758929 1.100302 -9.843197 2.003610 2.175506 -8.876437 4.756104 -48.254600 -0.084740 3.188432 56.907011 2.159188 12.865068 6.339109 3.117000 -0.000000 -53.156300 13.461676 -3.081349 -0.432400 -9.100017 -9.761780 -13.490840 -2.753764 -4.186325 76.572717 -1.151331 0.565184 11.505156 0.767200 -0.000000 -84.305499 -5.355207 -1.208129 -2.499339 -0.681088 -0.739494 -4.312831 -0.542713 -0.812544 -4.730046 1.911642 -4.056040 2.777574 0.374052 -0.166795 2.915239 0.000000 0.000000 0.000000 16.776176 -7.954892 -6.315300 -92.106188 -73.029430 24.822430 -0.549023 -87.276465 -0.232531 13.440835 -7.570014 -1.006061 0.057618 0.975026 -0.000000 0.000000 0.000000 0.000000 0.000000 0.000000 0.000000 -10.068614 0.119931 0.423841 29.529555 43.818010 -10.296706 -0.130838 74.940091 -0.100461 -9.021403 15.311939 -1.284574 0.049310 -0.761158 -0.000000 0.000000 0.000000 0.000000 0.000000 0.000000 0.000000 
1.444995 22.095460 0.792119 22.090446 -65.534302 2.381468 -9.634863 1.750175 1.971080 -10.232635 4.882391 -53.460170 -0.027746 3.747802 60.493709 2.232855 12.993312 3.652613 2.676400 -0.000001 -50.843400 13.667054 -2.983789 -0.749687 -9.986608 -9.214537 -14.827604 -3.478521 -4.732205 84.153880 -1.238306 -1.103935 8.458734 0.251800 -0.000001 -82.463300 -5.343539 -1.406674 -1.966415 -0.687993 -0.949102 -4.125715 -0.552877 -1.014828 -4.342161 2.475166 -4.862008 2.243679 0.348768 -0.157967 2.752999 0.000000 0.000000 0.000000 17.503018 -7.520359 -6.296269 -91.057789 -75.107052 23.556859 -0.602256 -87.533580 -0.226223 13.141123 -7.005216 -0.916712 0.063568 0.965492 -0.000000 0.000000 0.000000 0.000000 0.000000 0.000000 0.000000 -9.195458 -0.878501 0.936978 29.125688 41.767345 -8.070982 -0.027621 74.295548 -0.090228 -9.126650 16.252810 -1.378303 0.073645 -0.739577 -0.000000 0.000000 0.000000 0.000000 0.000000 0.000000 0.000000 
1.336378 22.230745 0.769576 21.431438 -64.337708 3.781535 -9.417454 1.541871 1.845913 -11.776495 4.719102 -58.982011 0.056455 4.336516 63.770261 2.302498 12.978505 1.158163 2.231800 -0.000000 -48.436500 13.857986 -2.910583 -1.039713 -10.998475 -8.482262 -16.077444 -4.352105 -5.287382 91.488461 -1.326441 -2.758120 5.345309 -0.121300 -0.000000 -80.482800 -5.265907 -1.598809 -1.555041 -0.681844 -1.156066 -3.956342 -0.562167 -1.217325 -3.928917 3.083372 -5.599779 1.679198 0.324580 -0.148492 2.581699 0.000000 0.000000 0.000000 18.374543 -6.873364 -6.246086 -88.730723 -77.369342 20.982585 -0.682867 -87.873340 -0.221041 12.907370 -6.433603 -0.834306 0.068511 0.956702 -0.000000 0.000000 0.000000 0.000000 0.000000 0.000000 0.000000 -8.236331 -1.923726 1.416077 28.729612 39.625907 -5.706735 0.095428 73.245622 -0.077340 -9.139836 17.244036 -1.463231 0.096704 -0.711467 -0.000000 0.000000 0.000000 0.000000 0.000000 0.000000 0.000000 
1.224857 22.348009 0.751571 20.800679 -63.182830 5.305220 -9.198899 1.389275 1.810098 -13.484293 4.193814 -64.793565 0.166798 4.948010 66.754200 2.368905 12.837033 -1.189142 1.792800 0.000000 -46.062000 14.024094 -2.865859 -1.287599 -12.165097 -7.498719 -17.211970 -5.382991 -5.842781 98.514129 -1.411576 -4.310242 2.180037 -0.333500 0.000001 -78.413800 -5.124560 -1.774591 -1.280791 -0.658763 -1.348560 -3.819667 -0.560818 -1.409022 -3.535347 3.723563 -6.253752 1.108302 0.301197 -0.138820 2.408918 0.000000 0.000000 0.000000 19.342587 -6.011777 -6.212584 -84.781630 -79.659944 16.616962 -0.797018 -88.277618 -0.217402 12.737717 -5.880274 -0.760649 0.073045 0.950242 -0.000000 0.000000 0.000000 0.000000 0.000000 0.000000 0.000000 -7.213753 -3.008147 1.857208 28.364258 37.366846 -3.253440 0.248382 71.836413 -0.062181 -9.082717 18.247938 -1.537357 0.118774 -0.676595 0.000000 0.000000 0.000000 0.000000 0.000000 0.000000 0.000000 
1.109146 22.446665 0.739333 20.202126 -62.093132 6.960072 -8.990151 1.303267 1.865946 -15.308212 3.251718 -70.846784 0.298386 5.576090 69.458488 2.432022 12.577953 -3.433213 1.362800 0.000000 -43.840600 14.152611 -2.854219 -1.477065 -13.514381 -6.181572 -18.199074 -6.571206 -6.386549 105.154133 -1.488153 -5.670980 -1.001333 -0.384000 -0.000000 -76.317800 -4.921791 -1.932382 -1.146895 -0.612843 -1.523065 -3.737683 -0.532504 -1.585842 -3.242263 4.369913 -6.819075 0.578543 0.275341 -0.130062 2.249147 0.000000 0.000000 0.000000 20.374144 -4.949116 -6.326878 -78.753468 -81.664488 9.837337 -0.954670 -88.734893 -0.215562 12.629087 -5.369924 -0.697352 0.077831 0.947103 -0.000000 0.000000 0.000000 0.000000 0.000000 0.000000 0.000000 -6.165285 -4.099026 2.276756 28.056195 34.964562 -0.753701 0.441017 70.117130 -0.045135 -8.987503 19.232369 -1.602077 0.140955 -0.635724 -0.000000 0.000000 0.000000 0.000000 0.000000 0.000000 0.000000 
0.988426 22.527087 0.734403 19.606661 -61.108612 8.774456 -8.807341 1.297104 2.011289 -17.166547 1.871144 -77.084402 0.443543 6.217061 71.892284 2.489856 12.198552 -5.605270 0.943700 -0.000000 -41.885800 14.224126 -2.879189 -1.589563 -15.053583 -4.435077 -19.008742 -7.900189 -6.899292 111.317539 -1.548563 -6.753500 -4.151154 -0.292099 -0.000000 -74.146100 -4.635104 -2.093909 -1.155630 -0.531663 -1.701462 -3.740333 -0.457028 -1.767181 -3.162977 4.965777 -7.299984 0.183626 0.234789 -0.124782 2.130429 0.000000 0.000000 0.000000 21.471487 -3.759693 -6.850776 -70.119622 -82.808743 0.013387 -1.169512 -89.292089 -0.215168 12.577801 -4.924069 -0.645308 0.083578 0.945655 -0.000000 0.000000 0.000000 0.000000 0.000000 0.000000 0.000000 -5.153560 -5.087208 2.723265 27.828869 32.419497 1.756595 0.685604 68.119878 -0.026398 -8.886899 20.170912 -1.660979 0.165243 -0.591330 -0.000000 0.000000 0.000000 0.000000 0.000000 0.000000 0.000000 
0.861790 22.590087 0.736968 19.012298 -60.287991 10.721592 -8.664504 1.397223 2.244379 -18.991584 0.073245 -83.421333 0.590219 6.866529 74.049132 2.538714 11.693439 -7.711966 0.542400 0.000000 -40.325000 14.222286 -2.945086 -1.596068 -16.809137 -2.161938 -19.616590 -9.332533 -7.358280 116.908275 -1.583835 -7.481701 -7.193964 -0.097900 -0.000000 -72.049700 -4.238734 -2.312355 -1.332641 -0.408599 -1.939199 -3.840130 -0.336061 -2.005453 -3.340336 5.431790 -7.716367 0.037866 0.153896 -0.126735 2.086191 0.000000 0.000000 0.000000 22.698603 -2.653134 -8.045568 -58.524845 -82.340582 -12.979811 178.551069 -89.855300 179.785506 12.574619 -4.567045 -0.605153 0.090277 0.939061 -0.000000 0.000000 0.000000 0.000000 0.000000 0.000000 0.000000 -4.239135 -5.765889 3.252640 27.692037 29.794863 4.215352 0.991838 65.858269 -0.006356 -8.809961 21.043596 -1.718648 0.193230 -0.548051 -0.000000 0.000000 0.000000 0.000000 0.000000 0.000000 0.000000 
0.729171 22.637414 0.748786 18.324808 -59.661507 12.822040 -8.591857 1.621298 2.581018 -20.665967 -2.093318 -89.783594 0.731173 7.518486 75.935864 2.572686 11.048927 -9.735327 0.171200 -0.000000 -39.280600 14.120626 -3.072059 -1.462442 -18.737057 0.694174 -20.011907 -10.797625 -7.737159 121.826941 -1.584206 -7.810152 -10.058824 0.145100 -0.000000 -69.970100 -3.622845 -2.605116 -1.764304 -0.239727 -2.266867 -3.978430 -0.230429 -2.333448 -3.516554 5.694114 -8.086043 0.099889 0.021400 -0.135750 2.102519 0.000000 0.000000 0.000000 23.983134 -1.856721 -9.598924 -44.403017 -80.044457 -27.993108 178.239670 -88.436971 179.788927 12.608080 -4.314250 -0.576761 0.094667 0.918952 -0.000000 0.000000 0.000000 0.000000 0.000000 0.000000 0.000000 -3.484178 -6.008691 3.805142 27.634566 27.185400 6.474813 1.334005 63.368606 0.013050 -8.778064 21.834835 -1.778488 0.221551 -0.509893 -0.000000 0.000000 0.000000 0.000000 0.000000 0.000000 0.000000 
0.590333 22.670865 0.770211 17.500572 -59.175054 15.066682 -8.610724 1.947634 3.009741 -22.114655 -4.589681 -96.070193 0.855204 8.158511 77.544153 2.584658 10.260508 -11.629862 -0.151600 0.000000 -38.864300 13.908884 -3.294646 -1.180334 -20.808460 4.107499 -20.220817 -12.210692 -8.041881 125.976190 -1.540150 -7.723284 -12.668133 0.379100 -0.000000 -67.865100 -2.768690 -2.864628 -2.464160 -0.052435 -2.588806 -4.062953 -0.233571 -2.664061 -3.315099 5.834884 -8.449163 0.074603 -0.123172 -0.143925 2.091746 0.000000 0.000000 0.000000 25.036803 -1.223640 -10.587199 -29.693053 -76.870884 -42.811763 177.974907 -86.545923 179.794628 12.664007 -4.159859 -0.559282 0.092103 0.890493 -0.000000 0.000000 0.000000 0.000000 0.000000 0.000000 0.000000 -2.830724 -6.118003 4.192781 27.632478 24.587392 8.333674 1.647747 60.769764 0.028895 -8.800459 22.538348 -1.841250 0.242603 -0.475601 -0.000000 0.000000 0.000000 0.000000 0.000000 0.000000 0.000000 
0.445642 22.692667 0.801498 16.506480 -58.749461 17.487657 -8.729613 2.332572 3.483275 -23.268094 -7.384959 -102.189922 0.948433 8.775009 78.855124 2.567783 9.335893 -13.334069 -0.407500 -0.000001 -39.141000 13.584461 -3.619659 -0.794080 -22.968482 7.954041 -20.324687 -13.478935 -8.290170 129.279112 -1.450835 -7.272173 -14.949050 0.556601 0.000000 -65.827000 -1.720292 -2.993419 -3.307481 0.149720 -2.809391 -4.099964 -0.335293 -2.901855 -2.778974 5.965740 -8.843238 -0.214790 -0.237531 -0.145488 2.004869 0.000000 0.000000 0.000000 25.665138 -0.371223 -10.717225 -16.683765 -73.657310 -55.759664 177.791485 -84.613542 179.799443 12.734818 -4.080226 -0.551179 0.084718 0.867507 -0.000000 0.000000 0.000000 0.000000 0.000000 0.000000 0.000000 -2.215926 -6.449441 4.343019 27.664305 21.932829 9.698646 1.903242 58.187905 0.040687 -8.868899 23.156627 -1.905680 0.254720 -0.442298 -0.000000 0.000000 0.000000 0.000000 0.000000 0.000000 0.000000 
0.295192 22.704453 0.841559 15.362865 -58.344284 20.058141 -8.941743 2.761382 3.959657 -24.105457 -10.430452 -108.044138 0.994738 9.361460 79.841351 2.517621 8.297948 -14.788236 -0.583900 -0.000001 -40.098200 13.164502 -4.022921 -0.355504 -25.174103 12.020683 -20.442601 -14.514687 -8.492192 131.704608 -1.326930 -6.574841 -16.857708 0.655300 -0.000000 -63.967100 -0.530979 -3.002048 -4.176000 0.378722 -2.934702 -4.128430 -0.472019 -3.046913 -2.132001 6.106347 -9.289699 -0.713082 -0.321675 -0.141397 1.859687 0.000000 0.000000 0.000000 25.937270 0.819687 -10.337993 -6.363073 -70.474677 -66.313033 177.664307 -82.879771 179.802209 12.814661 -4.054896 -0.550536 0.075873 0.853920 -0.000000 0.000000 0.000000 0.000000 0.000000 0.000000 0.000000 -1.631232 -7.043815 4.320889 27.707903 19.213597 10.544844 2.111472 55.700556 0.049633 -8.959071 23.697085 -1.968172 0.261085 -0.410234 -0.000000 0.000000 0.000000 0.000000 0.000000 0.000000 0.000000 
0.139475 22.707684 0.888818 14.109904 -57.921921 22.709741 -9.236928 3.233521 4.414382 -24.630322 -13.673489 -113.527252 0.980053 9.912752 80.478369 2.433018 7.181238 -15.945691 -0.678200 0.000000 -41.641500 12.681592 -4.468558 0.091106 -27.358778 16.011937 -20.695030 -15.249695 -8.650900 133.269773 -1.190967 -5.804196 -18.396776 0.684500 -0.000000 -62.325600 0.770451 -2.933504 -5.008959 0.638104 -3.004506 -4.158488 -0.611281 -3.135276 -1.487278 6.237987 -9.794617 -1.334330 -0.387324 -0.133940 1.680302 0.000000 0.000000 0.000000 25.955265 2.282729 -9.743926 1.405833 -67.259848 -74.692928 177.571114 -81.376670 179.803505 12.899719 -4.061783 -0.554495 0.065978 0.846924 -0.000000 0.000000 0.000000 0.000000 0.000000 0.000000 0.000000 -1.085778 -7.819010 4.197130 27.743330 16.456906 10.843140 2.283808 53.362346 0.056560 -9.041841 24.168756 -2.023801 0.263953 -0.381012 -0.000000 0.000000 0.000000 0.000000 0.000000 0.000000 0.000000 
